# xmcd
# 
# Track frame offsets:
#     150
#     15744
#     34377
#     64679
#     84734
#     98567
#     113224
#     157401
#     169895
#     188846
#     206057
#     270655
#     310728
#     326565
# 
# Disc length: 4590
# 
# Revision: 6
# Processed by: cddbd v1.5.2PL0 Copyright (c) Steve Scherf et al.
# Submitted via: fre:ac v1.0.31
# 
DISCID=c511ec0e
DTITLE=Stevie Ray Vaughan - A Legend In The Making:  Live At The El Mocambo, Toronto, July 20, 1983
DYEAR=1983
DGENRE=Blues
TTITLE0=Testify
TTITLE1=So Excited
TTITLE2=Voodoo Chile
TTITLE3=Pride and Joy
TTITLE4=Tell Me
TTITLE5=Mary Had a Little Lamb
TTITLE6=Texas Flood
TTITLE7=Love Struck Baby
TTITLE8=You'll Be Mine
TTITLE9=Hug You, Squeeze You
TTITLE10=Little Wing - Third Stone from the Sun
TTITLE11=Lenny
TTITLE12=Wham!
TTITLE13=Rude Mood
EXTD=
EXTT0=
EXTT1=
EXTT2=
EXTT3=
EXTT4=
EXTT5=
EXTT6=
EXTT7=
EXTT8=
EXTT9=
EXTT10=
EXTT11=
EXTT12=
EXTT13=
PLAYORDER=
